<svg width="13" height="12" viewBox="0 0 13 12" fill="none" xmlns="http://www.w3.org/2000/svg">
<g clip-path="url(#clip0)">
<path d="M2.78457 3.96599V11.8729H0.151596V3.96599H2.78457ZM2.95213 1.5245C2.95745 1.9128 2.82314 2.23727 2.5492 2.49791C2.27527 2.75854 1.91489 2.88886 1.46809 2.88886H1.45213C1.01596 2.88886 0.664894 2.75854 0.398936 2.49791C0.132979 2.23727 0 1.9128 0 1.5245C0 1.13089 0.136968 0.805088 0.410904 0.547109C0.684841 0.28913 1.04255 0.160141 1.48404 0.160141C1.92553 0.160141 2.27926 0.28913 2.54521 0.547109C2.81117 0.805088 2.94681 1.13089 2.95213 1.5245ZM12.2553 7.34099V11.8729H9.63032V7.64418C9.63032 7.08567 9.52261 6.64817 9.30718 6.33168C9.09176 6.01519 8.75532 5.85695 8.29787 5.85695C7.96277 5.85695 7.68218 5.9487 7.45612 6.13221C7.23005 6.31573 7.06117 6.54312 6.94947 6.8144C6.89096 6.97397 6.8617 7.1894 6.8617 7.46067V11.8729H4.2367C4.24734 9.75057 4.25266 8.02982 4.25266 6.71067C4.25266 5.39152 4.25 4.60429 4.24468 4.34897L4.2367 3.96599H6.8617V5.11493H6.84575C6.95213 4.94472 7.06117 4.79578 7.17287 4.66812C7.28458 4.54046 7.43484 4.40216 7.62367 4.25323C7.8125 4.10429 8.04388 3.9886 8.31782 3.90615C8.59176 3.8237 8.89628 3.78248 9.23138 3.78248C10.141 3.78248 10.8723 4.08434 11.4255 4.68807C11.9787 5.29179 12.2553 6.1761 12.2553 7.34099Z" fill="white"/>
</g>
<defs>
<clipPath id="clip0">
<rect width="12.2553" height="12" fill="white"/>
</clipPath>
</defs>
</svg>
