<svg width="169" height="35" viewBox="0 0 169 35" fill="none" xmlns="http://www.w3.org/2000/svg">
<path d="M2.124 28.8792C3.108 29.1912 3.936 29.3472 4.608 29.3472C5.28 29.3472 5.808 29.1072 6.192 28.6272C6.6 28.1472 6.96 27.2832 7.272 26.0352L0.072 7.13525H6.012L10.404 20.1312L14.148 7.13525H19.584L12.384 29.0952C11.88 30.6552 10.968 31.9152 9.648 32.8752C8.352 33.8592 6.828 34.3512 5.076 34.3512C4.068 34.3512 3.084 34.1712 2.124 33.8112V28.8792ZM30.2456 26.3952C28.0856 26.3952 26.2496 25.9392 24.7376 25.0272C23.2496 24.1152 22.1096 22.9152 21.3176 21.4272C20.5256 19.9392 20.1296 18.3312 20.1296 16.6032C20.1296 14.8512 20.5256 13.2312 21.3176 11.7432C22.1096 10.2552 23.2616 9.05525 24.7736 8.14325C26.2856 7.23125 28.1096 6.77525 30.2456 6.77525C32.3816 6.77525 34.2056 7.23125 35.7176 8.14325C37.2296 9.05525 38.3816 10.2552 39.1736 11.7432C39.9656 13.2312 40.3616 14.8512 40.3616 16.6032C40.3616 18.3312 39.9656 19.9392 39.1736 21.4272C38.3816 22.9152 37.2296 24.1152 35.7176 25.0272C34.2056 25.9392 32.3816 26.3952 30.2456 26.3952ZM26.0336 16.6032C26.0336 18.0672 26.4296 19.2552 27.2216 20.1672C28.0376 21.0792 29.0456 21.5352 30.2456 21.5352C31.4216 21.5352 32.4056 21.0792 33.1976 20.1672C34.0136 19.2552 34.4216 18.0672 34.4216 16.6032C34.4216 15.1392 34.0136 13.9512 33.1976 13.0392C32.4056 12.1272 31.4216 11.6712 30.2456 11.6712C29.0456 11.6712 28.0376 12.1272 27.2216 13.0392C26.4296 13.9512 26.0336 15.1392 26.0336 16.6032ZM50.5623 26.1072C48.8823 26.1072 47.4183 25.6752 46.1703 24.8112C44.9223 23.9472 43.9383 22.7952 43.2183 21.3552C42.5223 19.9152 42.1743 18.3192 42.1743 16.5672C42.1743 14.7192 42.5463 13.0632 43.2903 11.5992C44.0343 10.1112 45.0663 8.93525 46.3863 8.07125C47.7063 7.20725 49.2303 6.77525 50.9583 6.77525C52.3743 6.77525 53.6223 7.08725 54.7023 7.71125C55.7823 8.31125 56.6463 9.15125 57.2943 10.2312V7.13525H62.2983V24.7392C62.2983 26.6592 61.8303 28.3152 60.8943 29.7072C59.9823 31.0992 58.6983 32.1672 57.0423 32.9112C55.4103 33.6792 53.5143 34.0632 51.3543 34.0632C49.3383 34.0632 47.5983 33.7272 46.1343 33.0552C44.6943 32.4072 43.4343 31.4832 42.3543 30.2832L45.4503 27.1512C46.1463 27.9432 47.0103 28.5672 48.0423 29.0232C49.0983 29.5032 50.2023 29.7432 51.3543 29.7432C52.2903 29.7432 53.1423 29.5752 53.9103 29.2392C54.7023 28.9032 55.3383 28.3632 55.8183 27.6192C56.2983 26.8992 56.5383 25.9392 56.5383 24.7392V22.9032C55.9623 23.9592 55.1223 24.7632 54.0183 25.3152C52.9383 25.8432 51.7863 26.1072 50.5623 26.1072ZM52.5423 21.5352C53.4303 21.5352 54.2223 21.2952 54.9183 20.8152C55.6143 20.3112 56.1543 19.6752 56.5383 18.9072V14.9472C56.1543 13.9632 55.5663 13.1712 54.7743 12.5712C53.9823 11.9712 53.1423 11.6712 52.2543 11.6712C51.4383 11.6712 50.7063 11.9112 50.0583 12.3912C49.4343 12.8472 48.9423 13.4592 48.5823 14.2272C48.2223 14.9952 48.0423 15.8232 48.0423 16.7112C48.0423 18.1032 48.4743 19.2552 49.3383 20.1672C50.2023 21.0792 51.2703 21.5352 52.5423 21.5352ZM65.0576 20.3832C65.0576 19.1352 65.4056 18.0432 66.1016 17.1072C66.7976 16.1712 67.7576 15.4392 68.9816 14.9112C70.2056 14.3592 71.6096 14.0832 73.1936 14.0832C73.9616 14.0832 74.7176 14.1552 75.4616 14.2992C76.2056 14.4192 76.8536 14.5992 77.4056 14.8392V14.0112C77.4056 11.8752 76.1456 10.8072 73.6256 10.8072C72.5696 10.8072 71.5736 10.9872 70.6376 11.3472C69.7256 11.7072 68.7536 12.2232 67.7216 12.8952L65.9936 9.22325C68.4896 7.59125 71.2256 6.77525 74.2016 6.77525C77.0336 6.77525 79.2296 7.45925 80.7896 8.82725C82.3736 10.1712 83.1656 12.1272 83.1656 14.6952V19.6272C83.1656 20.2032 83.2496 20.6112 83.4176 20.8512C83.6096 21.0912 83.9336 21.2232 84.3896 21.2472V26.0352C83.8856 26.1312 83.4296 26.2032 83.0216 26.2512C82.6136 26.2992 82.2536 26.3232 81.9416 26.3232C80.8616 26.3232 80.0336 26.1072 79.4576 25.6752C78.9056 25.2432 78.5576 24.6552 78.4136 23.9112L78.3056 23.0832C77.4656 24.1632 76.4576 24.9912 75.2816 25.5672C74.1056 26.1192 72.8936 26.3952 71.6456 26.3952C70.3976 26.3952 69.2696 26.1312 68.2616 25.6032C67.2776 25.0752 66.4976 24.3672 65.9216 23.4792C65.3456 22.5672 65.0576 21.5352 65.0576 20.3832ZM76.5056 21.1032C77.1056 20.6232 77.4056 20.1312 77.4056 19.6272V17.9352C76.9016 17.7432 76.3496 17.5992 75.7496 17.5032C75.1736 17.3832 74.6456 17.3232 74.1656 17.3232C73.0856 17.3232 72.1976 17.5632 71.5016 18.0432C70.8296 18.5232 70.4936 19.1352 70.4936 19.8792C70.4936 20.5272 70.7456 21.0912 71.2496 21.5712C71.7776 22.0272 72.4736 22.2552 73.3376 22.2552C73.9136 22.2552 74.4896 22.1472 75.0656 21.9312C75.6416 21.7152 76.1216 21.4392 76.5056 21.1032ZM115.671 26.0352H113.871V15.5952C113.871 13.2432 113.499 11.5032 112.755 10.3752C112.035 9.22325 110.919 8.64725 109.407 8.64725C107.847 8.64725 106.479 9.19925 105.303 10.3032C104.127 11.3832 103.299 12.7752 102.819 14.4792V26.0352H101.019V15.5952C101.019 13.1952 100.659 11.4432 99.9394 10.3392C99.2194 9.21125 98.1034 8.64725 96.5914 8.64725C95.0554 8.64725 93.6874 9.18725 92.4874 10.2672C91.3114 11.3232 90.4714 12.7152 89.9674 14.4432V26.0352H88.1674V7.31525H89.8594V11.7792C90.6274 10.2672 91.6354 9.09125 92.8834 8.25125C94.1554 7.41125 95.5354 6.99125 97.0234 6.99125C98.6074 6.99125 99.8914 7.45925 100.875 8.39525C101.859 9.33125 102.447 10.5552 102.639 12.0672C104.415 8.68325 106.863 6.99125 109.983 6.99125C112.023 6.99125 113.475 7.72325 114.339 9.18725C115.227 10.6272 115.671 12.6552 115.671 15.2712V26.0352ZM119.561 20.6352C119.561 19.5312 119.885 18.5592 120.533 17.7192C121.205 16.8792 122.129 16.2312 123.305 15.7752C124.505 15.2952 125.873 15.0552 127.409 15.0552C128.369 15.0552 129.365 15.1392 130.397 15.3072C131.453 15.4752 132.377 15.7032 133.169 15.9912V14.2272C133.169 12.4992 132.665 11.1192 131.657 10.0872C130.649 9.05525 129.281 8.53925 127.553 8.53925C126.617 8.53925 125.645 8.73125 124.637 9.11525C123.629 9.49925 122.597 10.0512 121.541 10.7712L120.785 9.47525C123.233 7.81925 125.549 6.99125 127.733 6.99125C129.941 6.99125 131.693 7.65125 132.989 8.97125C134.309 10.2912 134.969 12.0912 134.969 14.3712V23.6592C134.969 24.2352 135.233 24.5352 135.761 24.5592V26.0352C135.305 26.0832 135.005 26.0952 134.861 26.0712C134.405 26.0232 134.045 25.8312 133.781 25.4952C133.541 25.1592 133.409 24.8112 133.385 24.4512V22.9752C132.521 24.0552 131.405 24.8952 130.037 25.4952C128.693 26.0952 127.277 26.3952 125.789 26.3952C124.613 26.3952 123.545 26.1432 122.585 25.6392C121.649 25.1112 120.905 24.4152 120.353 23.5512C119.825 22.6872 119.561 21.7152 119.561 20.6352ZM132.449 22.1832C132.929 21.5832 133.169 21.0192 133.169 20.4912V17.3952C131.441 16.7232 129.581 16.3872 127.589 16.3872C125.693 16.3872 124.169 16.7712 123.017 17.5392C121.865 18.2832 121.289 19.2792 121.289 20.5272C121.289 21.3192 121.493 22.0512 121.901 22.7232C122.309 23.3952 122.873 23.9352 123.593 24.3432C124.337 24.7512 125.189 24.9552 126.149 24.9552C127.493 24.9552 128.729 24.7032 129.857 24.1992C130.985 23.6712 131.849 22.9992 132.449 22.1832ZM148.656 25.1352C148.488 25.2312 148.044 25.4472 147.324 25.7832C146.604 26.0952 145.74 26.2512 144.732 26.2512C143.748 26.2512 142.884 25.9632 142.14 25.3872C141.42 24.8112 141.06 23.9832 141.06 22.9032V8.79125H138.432V7.31525H141.06V0.907247H142.86V7.31525H147.216V8.79125H142.86V22.4712C142.908 23.1672 143.16 23.6952 143.616 24.0552C144.072 24.3912 144.6 24.5592 145.2 24.5592C145.944 24.5592 146.592 24.4392 147.144 24.1992C147.696 23.9352 148.02 23.7672 148.116 23.6952L148.656 25.1352ZM159.44 26.3952C157.688 26.3952 156.104 25.9512 154.688 25.0632C153.296 24.1752 152.192 22.9872 151.376 21.4992C150.584 20.0112 150.188 18.3792 150.188 16.6032C150.188 14.8512 150.584 13.2552 151.376 11.8152C152.168 10.3512 153.26 9.18725 154.652 8.32325C156.044 7.43525 157.604 6.99125 159.332 6.99125C161.108 6.99125 162.68 7.43525 164.048 8.32325C165.44 9.18725 166.532 10.3512 167.324 11.8152C168.116 13.2792 168.512 14.8752 168.512 16.6032C168.512 16.8912 168.5 17.1552 168.476 17.3952H152.06C152.156 18.8352 152.552 20.1312 153.248 21.2832C153.944 22.4112 154.832 23.3112 155.912 23.9832C157.016 24.6312 158.216 24.9552 159.512 24.9552C160.808 24.9552 162.032 24.6192 163.184 23.9472C164.336 23.2752 165.14 22.4112 165.596 21.3552L167.18 21.7872C166.82 22.6752 166.244 23.4672 165.452 24.1632C164.684 24.8592 163.772 25.4112 162.716 25.8192C161.684 26.2032 160.592 26.3952 159.44 26.3952ZM151.988 15.9912H166.784C166.688 14.5272 166.292 13.2312 165.596 12.1032C164.924 10.9512 164.048 10.0632 162.968 9.43925C161.888 8.79125 160.688 8.46725 159.368 8.46725C158.048 8.46725 156.848 8.79125 155.768 9.43925C154.688 10.0872 153.812 10.9872 153.14 12.1392C152.468 13.2672 152.084 14.5512 151.988 15.9912Z" fill="white"/>
</svg>
